PathFileType	4	(X/Y/Z)	Patient4_TMGait_0pt7_02_left_50.trc.trc
DataRate	CameraRate	NumFrames	NumMarkers	Units	OrigDataRate	OrigDataStartFrame	OrigNumFrames
88.050314465409	88.050314465409	6	33	mm	88.050314465409	53	       141
Frame#	Time	Sacral			L.Shoulder			Chest			R.Shoulder			Neck			R.ASIS			L.ASIS			R.Thigh.Superior			R.Thigh.Lateral			R.Thigh.Inferior			R.Patella			L.Thigh.Superior			L.Thigh.Lateral			L.Thigh.Inferior			L.Patella			L.Shank.Superior			L.Shank.Lateral			L.Shank.Inferior			R.Shank.Superior			R.Shank.Lateral			R.Shank.Inferior			R.Heel			R.Midfoot.Superior			R.Midfoot.Lateral			R.Toe			L.Heel			L.Midfoot.Lateral			L.Midfoot.Superior			L.Toe			L.Elbow			L.Wrist			R.Elbow			R.Wrist			
		X1	Y1	Z1	X2	Y2	Z2	X3	Y3	Z3	X4	Y4	Z4	X5	Y5	Z5	X6	Y6	Z6	X7	Y7	Z7	X8	Y8	Z8	X9	Y9	Z9	X10	Y10	Z10	X11	Y11	Z11	X12	Y12	Z12	X13	Y13	Z13	X14	Y14	Z14	X15	Y15	Z15	X16	Y16	Z16	X17	Y17	Z17	X18	Y18	Z18	X19	Y19	Z19	X20	Y20	Z20	X21	Y21	Z21	X22	Y22	Z22	X23	Y23	Z23	X24	Y24	Z24	X25	Y25	Z25	X26	Y26	Z26	X27	Y27	Z27	X28	Y28	Z28	X29	Y29	Z29	X30	Y30	Z30	X31	Y31	Z31	X32	Y32	Z32	X33	Y33	Z33	

53	57.860571428571	760.266953666755	1014.416172287192	434.257788796543	960.816664518514	1428.264607211232	248.820878302519	1059.885715895513	1356.211426045612	412.438462768257	981.299158268489	1440.537829987900	584.148384635157	966.007862781042	1493.940941012758	401.697200405798	980.588844854117	941.516798747549	557.995707586898	977.682692700874	961.967104787746	283.990402878120	1060.801440305431	773.229901080311	535.000473145880	1016.152886560216	653.313242067263	609.534333572851	1110.534369525339	612.550992460815	536.169602985373	1125.063371915126	496.039330492046	560.130412409829	1023.702650321787	753.504399880339	309.086793360797	932.804871014340	638.990652181457	253.150048593125	1016.617709213871	560.579976110045	316.636520190889	1016.157008484732	491.841646996225	327.685098925833	990.696707461030	420.463926034504	320.257130374146	903.238741383120	303.855870087513	269.736192861692	955.875373872432	195.267821205080	344.784828756504	1040.502774990800	427.487404135604	562.978418125969	911.341120882420	403.592855679104	615.099248514621	887.515773825823	296.737666984641	566.155574828237	685.693650519123	267.203743512822	525.757667202549	836.369865391448	175.439614639676	573.673287980452	726.645838062469	194.449563246117	599.431355854637	876.354166837894	51.525367382401	598.004604356080	829.116617507689	38.670977638211	389.145333309580	904.772405235832	35.032912170981	309.544179740290	986.844541864323	96.479814299766	337.475185148138	1116.353806582063	44.825721853354	313.114402506438	964.077512149770	1079.011831066419	125.574750822603	1132.815525737773	878.612753472527	136.245058110269	916.428752315484	1097.881397136224	701.711967733666	1082.062174521626	901.207834528066	674.117799581173	
54	57.871928571429	758.904756000563	1014.831751488272	433.097487747267	961.511790921590	1428.300225223772	248.086498786840	1059.212896510197	1356.264793030394	412.486852250761	979.637273902525	1440.964918477876	583.504695027906	965.739990387243	1494.139994940489	400.828305862635	978.817332688802	942.250953364202	558.016583565719	976.893000632066	962.382475506264	283.849222372116	1061.865672490276	777.490077319986	534.806664006959	1020.269473210894	656.863397685556	609.751463951896	1115.638098687893	618.159347404259	536.516758513357	1133.195173954624	501.974877137276	560.600874301054	1020.726121974901	752.724320881601	308.628096067529	928.294802787144	639.182920524374	252.763667559379	1011.134041263972	559.807886372988	316.124456445601	1009.839371032985	491.262687210226	327.312704999315	984.160816140858	420.210582667721	319.846142330421	896.038513388079	304.003084966165	269.417652410940	948.352469200995	195.210020020408	344.502857559317	1050.172395865292	431.514563576567	563.558335739680	921.662157637769	404.543344905471	615.715036805747	900.318414610751	297.077008279887	566.800848614328	699.005890527863	262.245546658496	526.821688235426	852.353324754866	174.832792511664	574.317210649705	742.210994363122	190.670527436376	600.318080787849	895.779040956958	52.335667675591	598.266885660502	821.076391854405	38.724582065745	389.056353923943	896.785502359540	35.017897280345	309.476449464646	978.886028574064	96.437406122554	337.350296304726	1108.362878606667	44.720241799922	313.068564359173	973.221435316690	1080.511909520561	122.744796532312	1150.972527115098	888.233450223861	135.016651369619	910.172989023455	1098.802722556452	700.698918547468	1057.258975500707	886.074004700938	681.561794808902	
55	57.883285714286	757.615252363770	1015.251286391629	432.069194014169	962.296795656867	1428.384671301971	247.515728196072	1058.628728389229	1356.287519942291	412.643536607280	978.126766940221	1441.324896107579	582.992044150569	965.500534775433	1494.332515820629	400.132440280707	977.116160933144	942.928199319308	558.115033840698	976.154801295755	962.762109695899	283.776897765730	1062.723271924411	781.547622166619	534.773499802185	1023.998321016519	660.290199596905	610.056258339180	1120.216771127476	623.531189810526	536.923681803859	1140.674018323431	507.875997383054	561.125376202736	1017.594981518606	751.921036414527	308.496545423321	923.733306261339	639.392249359696	252.451233151471	1005.451860382262	559.045388343393	315.770472857325	1003.281249098584	490.704206293201	327.049556090272	977.442854879984	419.992939818199	319.505113606800	888.725523995425	304.156288176988	269.146878812956	940.751811592994	195.174348826232	344.262322352050	1059.514948421572	435.335207510737	564.210721340972	931.938046528604	404.719874518489	616.597620763419	913.508896116934	296.603698090426	567.717488686235	712.948720593821	255.635045969995	528.427694903919	869.325461136502	173.284855260862	575.370978725040	758.754362134396	185.448767284086	601.675860763364	916.673931506978	52.345212771108	598.801537767749	813.029257881113	38.772160437597	388.984512029793	888.794031951687	35.003166006653	309.424832862519	970.916506695537	96.405349027987	337.242309655459	1100.365700211494	44.635582077246	313.035415484717	982.051276908080	1082.318381287937	120.128320189689	1168.288215435223	898.473150894003	134.195284487356	904.104063235550	1099.844693032747	700.067394347826	1031.280262077921	873.300779849024	689.124388174771	
56	57.894642857143	756.402367385439	1015.651566807844	431.180544169307	963.154263297767	1428.501800264284	247.123682567334	1058.135265128822	1356.263681907341	412.917266540401	976.771945543730	1441.586180384213	582.632551296262	965.293131158727	1494.499319190613	399.631227709395	975.506386519529	943.518715071079	558.270915011923	975.471953781872	963.094343714066	283.764940947614	1063.382892231881	785.323277464761	534.845495529042	1027.341209819447	663.517089376250	610.430078179500	1124.249609626882	628.554181036886	537.351510645547	1147.443041654187	513.627204235418	561.679753345508	1014.345247782930	751.091693135533	308.657957601467	919.134059021829	639.611653322771	252.197569202456	999.592635943731	558.290722490236	315.543372801100	996.510370380832	490.164229031079	326.869232385924	970.567418170984	419.804466707864	319.218771466810	881.323157615175	304.308928256899	268.909644612917	933.084307620629	195.155127909594	344.056798382204	1068.473656159790	438.883545340901	564.923861093312	942.160106907977	404.111288156323	617.740168539085	927.054855293997	295.351394293846	568.909038274583	727.570700970777	247.494077361958	530.582078053561	887.215273521412	170.886735445669	576.854191880874	776.266006660187	178.941209686273	603.525543719124	938.881973178104	51.656275085321	599.677407783407	804.980005179552	38.814489307591	388.927148208282	880.798723743499	34.987938367361	309.387269664702	962.938155251116	96.383523759653	337.149311437543	1092.364961868449	44.570035284491	313.013342020422	990.491031286059	1084.386194950064	117.718632959346	1184.711748547467	909.286144882325	133.767996652896	898.022020202914	1101.040346190479	699.802557771117	1004.484549039129	863.081288106345	696.699828526798	
57	57.906000000000	755.274503056085	1016.011968047303	430.439630578481	964.061873403706	1428.631548392808	246.921787037990	1057.732034182314	1356.179608339923	413.313968901416	975.574363944276	1441.724305865190	582.444036612960	965.124566540768	1494.620338821496	399.341552086955	974.007716998054	943.997180948117	558.467352899062	974.844600376858	963.367373762631	283.808437362294	1063.848123965923	788.739868818675	534.970288586048	1030.285833429481	666.466770089384	610.850938770162	1127.709840205757	633.117670917092	537.766736737513	1153.443463899229	519.113797026571	562.239387094370	1011.021221017169	750.230183579858	309.059155962017	914.506918122574	639.833257633278	251.991412079931	993.581758346122	557.540107056093	315.412189632074	989.562699410825	489.639995165946	326.745915792253	963.562329149657	419.639192784274	318.973586784431	873.853458595754	304.456546633770	268.694161488778	925.361511483743	195.147580976396	343.880225857656	1076.989690828684	442.103387008983	565.687711880564	952.323212473223	402.720516642533	619.131140564474	940.929775777957	293.371195855911	570.373647039822	742.933729601199	237.951226788000	533.275993901360	905.964133280745	167.750270754612	578.767553676780	794.753576714704	171.320231232923	605.873482886329	962.273948169494	50.429463081175	600.947184007596	796.933235875522	38.852932545638	388.880507602816	872.799954593962	34.971487790716	309.361479638741	954.953161963694	96.371276168103	337.068948975885	1084.362428822027	44.521688498838	313.000271471774	998.483644674676	1086.662731588778	115.507965921547	1200.199773266576	920.622308916369	133.719432993069	891.740777273061	1102.434363144104	699.881666891561	977.278476667458	855.508863549985	704.166810546802	
58	57.917357142857	754.245094448884	1016.314763191811	429.854683479743	964.996429801433	1428.751167297752	246.916638941767	1057.417428445079	1356.024009946619	413.836569274176	974.533495278484	1441.723746317880	582.438368960288	965.004464115346	1494.676024703499	399.273547287205	972.637637022953	944.342345072398	558.692435973360	974.270767335420	963.569769791011	283.905427408310	1064.117708027995	791.723413946688	535.104936534947	1032.804991450428	669.061762724279	611.296408311050	1130.564134942036	637.114223926330	538.144241491624	1158.616514427372	524.224726033825	562.780696836481	1007.668836070604	749.327888271400	309.634924189788	909.857933365984	640.049697053487	251.824870455812	987.446713057942	556.788326323569	315.348505252160	982.480057773787	489.128518218115	326.655126527408	956.455854271600	419.492188874558	318.758143435967	866.335335183325	304.597104763909	268.491732720517	917.594896301082	195.148000348425	343.727213317730	1085.001982552191	444.947846008986	566.493238232152	962.423453496088	400.565294370020	620.756644440652	955.110651444670	290.730926898038	572.103983615220	759.112495133074	227.143672541204	536.484788034409	925.524864153432	164.003865866225	581.092502882260	814.237419153044	162.769896455145	608.709749677773	986.744504415479	48.869545466034	602.643280272951	788.892744354244	38.889241481507	388.840298204627	864.797752151059	34.953263204755	309.345291976469	946.963528783348	96.367298844681	336.998756452803	1076.358719923024	44.488239235140	312.994002385091	1005.990021731277	1089.090343780539	113.489381482577	1214.713812940361	932.424976394419	134.032281341134	885.111308608019	1104.079312303748	700.280821396166	950.091021576357	850.566676182067	711.394357438985	
